<svg width="18" height="19" viewBox="0 0 18 19" fill="none" xmlns="http://www.w3.org/2000/svg">
<path fill-rule="evenodd" clip-rule="evenodd" d="M13 0.52002H5C2.23858 0.52002 0 2.7586 0 5.52002V13.52C0 16.2814 2.23858 18.52 5 18.52H13C15.7614 18.52 18 16.2814 18 13.52V5.52002C18 2.7586 15.7614 0.52002 13 0.52002ZM16.25 13.52C16.2445 15.3126 14.7926 16.7645 13 16.77H5C3.20735 16.7645 1.75549 15.3126 1.75 13.52V5.52002C1.75549 3.72737 3.20735 2.27551 5 2.27002H13C14.7926 2.27551 16.2445 3.72737 16.25 5.52002V13.52ZM13.75 5.77002C14.3023 5.77002 14.75 5.3223 14.75 4.77002C14.75 4.21774 14.3023 3.77002 13.75 3.77002C13.1977 3.77002 12.75 4.21774 12.75 4.77002C12.75 5.3223 13.1977 5.77002 13.75 5.77002ZM9 5.02002C6.51472 5.02002 4.5 7.03474 4.5 9.52002C4.5 12.0053 6.51472 14.02 9 14.02C11.4853 14.02 13.5 12.0053 13.5 9.52002C13.5027 8.32572 13.0294 7.17959 12.1849 6.3351C11.3404 5.49061 10.1943 5.01736 9 5.02002ZM6.25 9.52002C6.25 11.0388 7.4812 12.27 9 12.27C10.5188 12.27 11.75 11.0388 11.75 9.52002C11.75 8.00122 10.5188 6.77002 9 6.77002C7.4812 6.77002 6.25 8.00122 6.25 9.52002Z" fill="black"/>
</svg>
