<svg width="18" height="19" viewBox="0 0 18 19" fill="none" xmlns="http://www.w3.org/2000/svg">
<path fill-rule="evenodd" clip-rule="evenodd" d="M1.5 0.52002C0.67157 0.52002 0 1.19159 0 2.02002V17.02C0 17.8484 0.67157 18.52 1.5 18.52H16.5C17.3284 18.52 18 17.8484 18 17.02V2.02002C18 1.19159 17.3284 0.52002 16.5 0.52002H1.5ZM5.52076 4.52274C5.52639 5.47899 4.81061 6.06821 3.96123 6.06399C3.16107 6.05977 2.46357 5.42274 2.46779 4.52415C2.47201 3.67899 3.13998 2.99977 4.00764 3.01946C4.88795 3.03915 5.52639 3.68462 5.52076 4.52274ZM9.2797 7.28178H6.75971H6.7583V15.8416H9.4217V15.6419C9.4217 15.262 9.4214 14.882 9.4211 14.5019C9.4203 13.4881 9.4194 12.4732 9.4246 11.4597C9.426 11.2136 9.4372 10.9577 9.5005 10.7228C9.7381 9.84532 10.5271 9.27862 11.4074 9.41792C11.9727 9.50642 12.3467 9.83412 12.5042 10.3671C12.6013 10.7003 12.6449 11.0589 12.6491 11.4063C12.6605 12.4539 12.6589 13.5015 12.6573 14.5492C12.6567 14.919 12.6561 15.289 12.6561 15.6588V15.8402H15.328V15.6349C15.328 15.1829 15.3278 14.731 15.3275 14.2791C15.327 13.1496 15.3264 12.0201 15.3294 10.8902C15.3308 10.3797 15.276 9.87632 15.1508 9.38272C14.9638 8.64862 14.5771 8.04112 13.9485 7.60242C13.5027 7.29021 13.0133 7.08912 12.4663 7.06662C12.404 7.06403 12.3412 7.06064 12.2781 7.05723C11.9984 7.04211 11.7141 7.02675 11.4467 7.08068C10.6817 7.23396 10.0096 7.58412 9.5019 8.20142C9.4429 8.27222 9.3852 8.34412 9.2991 8.45142L9.2797 8.47572V7.28178ZM2.68164 15.8444H5.33242V7.28735H2.68164V15.8444Z" fill="black"/>
</svg>
