<svg width="120" height="49" viewBox="0 0 120 49" fill="none" xmlns="http://www.w3.org/2000/svg">
<path fill-rule="evenodd" clip-rule="evenodd" d="M33.0608 14.7461L23.1955 34.0319H13.9291L18.0578 26.039H17.8725C14.4664 30.4606 9.38439 33.3714 2.14331 34.0319V26.1497C2.14331 26.1497 6.7756 25.876 9.4988 23.013H2.14331V14.7462H10.4101V21.5455L10.5956 21.5448L13.9738 14.7462H20.2257V21.5024L20.4112 21.5021L23.916 14.7461H33.0608Z" fill="black"/>
<path d="M86.8577 31.9032H89.5201V16.6211H86.8577V31.9032Z" fill="black"/>
<path fill-rule="evenodd" clip-rule="evenodd" d="M72.1799 31.7471C72.7585 31.9876 73.3469 32.1079 73.9451 32.1079C74.9333 32.1079 75.8175 31.8674 76.5977 31.3862C77.3778 30.9051 77.9826 30.242 78.4117 29.3968C78.8408 28.5451 79.0553 27.5795 79.0553 26.5003C79.0553 25.421 78.8343 24.4556 78.3922 23.6038C77.95 22.7521 77.3356 22.0922 76.5489 21.6241C75.7622 21.1495 74.8682 20.9154 73.867 20.9219C73.2299 20.9219 72.6188 21.0455 72.0335 21.2925C71.4484 21.5396 70.9608 21.8907 70.5707 22.3458C70.5406 22.3804 70.5113 22.4154 70.4829 22.4508V16.6309H67.8108V31.9032H70.4634L70.4581 30.4765C70.5267 30.5606 70.6001 30.6427 70.6779 30.7231C71.1005 31.1588 71.6012 31.5 72.1799 31.7471ZM74.9105 29.2798C74.4749 29.5464 73.9775 29.6796 73.4184 29.6796C72.8657 29.6796 72.3586 29.543 71.897 29.27C71.4353 28.9904 71.0681 28.6101 70.7949 28.129C70.5284 27.6479 70.3951 27.1017 70.3951 26.4905C70.3887 25.8794 70.5186 25.3333 70.7852 24.8522C71.0583 24.3645 71.4256 23.9874 71.8873 23.7209C72.3489 23.4478 72.8593 23.3145 73.4184 23.321C73.9775 23.3145 74.4749 23.4445 74.9105 23.7111C75.3526 23.9712 75.6907 24.345 75.9248 24.8326C76.1653 25.3138 76.2856 25.8664 76.2856 26.4905C76.2856 27.1147 76.1653 27.6674 75.9248 28.1485C75.6907 28.6296 75.3526 29.0067 74.9105 29.2798Z" fill="black"/>
<path d="M36.918 17.5476H39.9607L42.6826 27.4879L45.5782 17.5476H48.1138L51.2541 27.2884L53.8677 17.5476H56.6569L52.5414 31.9032H49.918L46.7247 22.3871L43.7935 31.9032H41.1408L36.918 17.5476Z" fill="black"/>
<path fill-rule="evenodd" clip-rule="evenodd" d="M61.1504 32.1566C60.0906 32.1632 59.1348 31.9291 58.2832 31.4545C57.4379 30.9734 56.7716 30.3069 56.2839 29.4552C55.8028 28.6036 55.5623 27.6316 55.5623 26.5392C55.5623 25.4795 55.8093 24.5205 56.3035 23.6623C56.7975 22.8041 57.4672 22.1344 58.3124 21.6533C59.1577 21.1722 60.1003 20.9316 61.1406 20.9316C62.3109 20.9316 63.3349 21.1917 64.2126 21.7118C65.0968 22.232 65.7567 22.9699 66.1924 23.9256C66.6345 24.8749 66.7938 25.9639 66.6702 27.1927H58.3166C58.34 27.6822 58.4621 28.1276 58.683 28.5288C58.9301 28.9708 59.2747 29.3154 59.7167 29.5625C60.1589 29.8096 60.653 29.9331 61.1992 29.9331C61.6152 29.9266 62.0021 29.8551 62.3597 29.7186C62.7173 29.5756 63.0195 29.3838 63.2666 29.1431C63.5202 28.9026 63.6991 28.6296 63.8031 28.324H66.5922C66.4232 29.0717 66.0851 29.7381 65.578 30.3232C65.0708 30.9019 64.4337 31.3537 63.6665 31.6788C62.8993 32.0039 62.0606 32.1632 61.1504 32.1566ZM58.6928 24.5108C58.537 24.7825 58.429 25.075 58.3689 25.3885H63.9064C63.8662 24.9925 63.7439 24.6317 63.5397 24.306C63.3056 23.9224 62.9871 23.6266 62.584 23.4185C62.1809 23.2039 61.7258 23.0967 61.2187 23.0967C60.679 23.0967 60.1882 23.2202 59.746 23.4673C59.3039 23.7143 58.9528 24.0622 58.6928 24.5108Z" fill="black"/>
<path d="M81.0158 21.156C81.0158 20.2848 81.214 19.5111 81.6106 18.8349C82.0071 18.1523 82.5631 17.6224 83.2783 17.2453C83.9999 16.8617 84.842 16.6634 85.8041 16.6504V19.0202C85.3555 19.0267 84.9719 19.121 84.6534 19.303C84.3413 19.4786 84.1007 19.7354 83.9317 20.0735C83.7761 20.3847 83.6921 20.7456 83.6798 21.156H85.7456V23.4088H83.6782V31.9032H81.0158V23.4088H79.2993V21.156H81.0158Z" fill="black"/>
<path fill-rule="evenodd" clip-rule="evenodd" d="M96.2878 32.1371C95.202 32.1371 94.23 31.8998 93.3718 31.4253C92.5201 30.9441 91.8504 30.281 91.3628 29.4357C90.8816 28.5841 90.6411 27.6186 90.6411 26.5392C90.6411 25.4535 90.8816 24.4848 91.3628 23.6331C91.8504 22.7748 92.5201 22.1084 93.3718 21.6338C94.23 21.1592 95.202 20.9219 96.2878 20.9219C97.38 20.9219 98.3553 21.1592 99.2134 21.6338C100.078 22.1084 100.751 22.7716 101.232 23.6233C101.713 24.475 101.957 25.447 101.964 26.5392C101.957 27.6186 101.713 28.5841 101.232 29.4357C100.758 30.281 100.088 30.9441 99.2232 31.4253C98.3585 31.8998 97.38 32.1371 96.2878 32.1371ZM96.2878 29.6893C96.8599 29.6893 97.367 29.5593 97.8091 29.2992C98.2513 29.0327 98.5925 28.6621 98.8332 28.1874C99.0737 27.7063 99.1939 27.1569 99.1939 26.5392C99.1939 25.9151 99.0737 25.3625 98.8332 24.8814C98.5925 24.4002 98.2513 24.0297 97.8091 23.7696C97.367 23.503 96.8599 23.3697 96.2878 23.3697C95.7222 23.3697 95.2183 23.503 94.7761 23.7696C94.3406 24.0297 94.0024 24.4002 93.7619 24.8814C93.5213 25.3625 93.4043 25.9151 93.4108 26.5392C93.4108 27.1569 93.5311 27.7063 93.7716 28.1874C94.0187 28.6621 94.3567 29.0327 94.7859 29.2992C95.2215 29.5593 95.7222 29.6893 96.2878 29.6893Z" fill="black"/>
<path d="M104.841 21.156H101.876L105.085 31.9032H107.679L109.789 25.039L112.067 31.9032H114.622L117.841 21.156H115.159L113.333 27.8455L111.316 21.156H108.722L106.715 27.9928L104.841 21.156Z" fill="black"/>
</svg>
