<svg width="140" height="57" viewBox="0 0 140 57" fill="none" xmlns="http://www.w3.org/2000/svg">
<path d="M49.6154 37.8248H53.774V30.6957H55.5821L59.999 37.8248H64.4417L59.5599 29.9726C61.7296 29.3268 63.3569 27.8544 63.3569 25.0649V24.9615C63.3569 21.1387 60.5931 19.3564 56.2278 19.3564H49.6154V37.8248ZM53.774 27.8544V22.5594H56.1245C58.1393 22.5594 59.2758 23.2051 59.2758 25.0907V25.194C59.2758 26.9763 58.2168 27.8544 56.1245 27.8544H53.774Z" fill="black"/>
<path d="M71.5797 38.1089C75.2733 38.1089 77.598 36.4817 78.0371 33.5629H74.4984C74.2659 34.6994 73.4136 35.4485 71.683 35.4485C69.6424 35.4485 68.4285 34.157 68.3251 31.9098H78.063V30.8766C78.063 26.0464 74.9634 24.0059 71.4764 24.0059C67.5502 24.0059 64.5281 26.7696 64.5281 31.0316V31.2382C64.5281 35.5518 67.4985 38.1089 71.5797 38.1089ZM68.3768 29.6109C68.6609 27.6995 69.7974 26.5889 71.4764 26.5889C73.2586 26.5889 74.2918 27.5703 74.421 29.6109H68.3768Z" fill="black"/>
<path d="M79.843 37.8251H83.5626V18.1943H79.843V37.8251Z" fill="black"/>
<path d="M90.6984 38.1091C92.9201 38.1091 94.2886 37.0759 94.9859 35.7069V37.825H98.7056V24.3159H94.9859V32.2457C94.9859 34.2347 93.7461 35.2161 92.1711 35.2161C90.5698 35.2161 89.8199 34.3379 89.8199 32.504V24.3159H86.1008V33.0206C86.1008 36.5593 88.0638 38.1091 90.6984 38.1091Z" fill="black"/>
<path d="M101.245 37.8248H104.991V29.8434C104.991 28.0095 106.153 27.0796 107.599 27.0796C108.917 27.0796 109.717 27.8545 109.717 29.5851V37.8248H113.437V29.8434C113.437 28.0095 114.599 27.0796 116.046 27.0796C117.389 27.0796 118.164 27.8545 118.164 29.5851V37.8248H121.883V29.1719C121.883 25.5815 119.946 24.0059 117.44 24.0059C115.736 24.0059 113.98 24.729 112.895 26.3564C112.249 24.7549 110.906 24.0059 109.123 24.0059C107.108 24.0059 105.662 25.1165 104.991 26.3822V24.3158H101.245V37.8248Z" fill="black"/>
<path d="M130.532 38.1089C134.226 38.1089 136.551 36.4817 136.989 33.5629H133.451C133.218 34.6994 132.366 35.4485 130.635 35.4485C128.595 35.4485 127.381 34.157 127.278 31.9098H137.016V30.8766C137.016 26.0464 133.916 24.0059 130.429 24.0059C126.503 24.0059 123.48 26.7696 123.48 31.0316V31.2382C123.48 35.5518 126.451 38.1089 130.532 38.1089ZM127.329 29.6109C127.614 27.6995 128.75 26.5889 130.429 26.5889C132.211 26.5889 133.244 27.5703 133.374 29.6109H127.329Z" fill="black"/>
<path fill-rule="evenodd" clip-rule="evenodd" d="M35.3034 20.4613L35.0523 20.0129C34.7284 19.4706 34.2716 19.0199 33.725 18.7035L21.6889 11.7617C21.1439 11.4455 20.5252 11.2785 19.8952 11.2773H19.375C18.7449 11.2785 18.1263 11.4455 17.5812 11.7617L5.54523 18.7214C5.00168 19.0357 4.55016 19.4873 4.2358 20.0308L3.98468 20.4793C3.66852 21.0242 3.50149 21.6429 3.50037 22.2729V36.1745C3.50149 36.8046 3.66852 37.4232 3.98468 37.9683L4.2358 38.4167C4.55829 38.9539 5.00798 39.4036 5.54523 39.7261L17.5992 46.6679C18.1415 46.9906 18.7619 47.1581 19.3929 47.1522H19.8952C20.5252 47.151 21.1439 46.984 21.6889 46.6679L33.725 39.7082C34.2739 39.4009 34.7271 38.9477 35.0343 38.3988L35.3034 37.9503C35.6157 37.4037 35.7825 36.786 35.7877 36.1566V22.255C35.7866 21.625 35.6196 21.0063 35.3034 20.4613ZM19.375 14.8648H19.8952L30.4065 20.9276L19.644 27.1339L8.88162 20.9276L19.375 14.8648ZM21.4378 42.668L31.9311 36.6051L32.2002 36.1567V24.031L21.4378 30.2552V42.668Z" fill="black"/>
</svg>
