<svg width="37" height="40" viewBox="0 0 37 40" fill="none" xmlns="http://www.w3.org/2000/svg">
<path fill-rule="evenodd" clip-rule="evenodd" d="M36.1267 10.24L35.8467 9.74C35.4855 9.13538 34.9761 8.63286 34.3667 8.28L20.9467 0.54C20.3391 0.1875 19.6493 0.00124 18.9467 0H18.3667C17.6641 0.00124 16.9743 0.1875 16.3667 0.54L2.94675 8.3C2.34069 8.65052 1.83727 9.15394 1.48675 9.76L1.20675 10.26C0.854248 10.8677 0.667988 11.5575 0.666748 12.26V27.76C0.667988 28.4626 0.854248 29.1524 1.20675 29.76L1.48675 30.26C1.84633 30.859 2.34773 31.3604 2.94675 31.72L16.3867 39.46C16.9913 39.8198 17.6831 40.0066 18.3867 40H18.9467C19.6493 39.9988 20.3391 39.8126 20.9467 39.46L34.3667 31.7C34.9787 31.3574 35.4841 30.852 35.8267 30.24L36.1267 29.74C36.4749 29.1306 36.6609 28.442 36.6667 27.74V12.24C36.6655 11.5375 36.4793 10.8477 36.1267 10.24ZM18.3667 4H18.9467L30.6667 10.76L18.6667 17.68L6.66675 10.76L18.3667 4ZM20.6667 35L32.3667 28.24L32.6667 27.74V14.22L20.6667 21.16V35Z" fill="black"/>
</svg>
